<svg width="64" height="62" viewBox="0 0 64 62" fill="none" xmlns="http://www.w3.org/2000/svg">
<path d="M23.7681 59.1651C35.7903 59.1651 45.5362 49.4192 45.5362 37.397C45.5362 25.3748 35.7903 15.6289 23.7681 15.6289C11.7459 15.6289 2 25.3748 2 37.397C2 49.4192 11.7459 59.1651 23.7681 59.1651Z" stroke="white" stroke-width="4" stroke-miterlimit="10" stroke-linecap="round"/>
<path d="M23.3629 37.5911C18.5795 31.6369 17.1746 23.6423 19.6834 16.417C22.2256 9.29204 28.5143 3.93998 35.9068 2.43472C47.6813 0.0597396 59.1883 7.65298 61.5632 19.4275C63.771 30.3323 57.4154 41.1703 46.7782 44.5153C45.9085 44.7829 45.0053 45.017 44.1021 45.1843" stroke="white" stroke-width="4" stroke-miterlimit="10" stroke-linecap="round"/>
</svg>
